<svg width="101" height="135" viewBox="0 0 101 135" fill="none" xmlns="http://www.w3.org/2000/svg">
<g opacity="0.3" filter="url(#filter0_d_21_5)">
<mask id="mask0_21_5" style="mask-type:alpha" maskUnits="userSpaceOnUse" x="17" y="0" width="13" height="13">
<path d="M23.2235 12.0876C26.4373 12.0876 29.0426 9.53641 29.0426 6.38939C29.0426 3.24237 26.4373 0.691223 23.2235 0.691223C20.0097 0.691223 17.4044 3.24237 17.4044 6.38939C17.4044 9.53641 20.0097 12.0876 23.2235 12.0876Z" fill="url(#paint0_linear_21_5)"/>
</mask>
<g mask="url(#mask0_21_5)">
<path d="M23.2235 12.0876C26.4373 12.0876 29.0426 9.53641 29.0426 6.38939C29.0426 3.24237 26.4373 0.691223 23.2235 0.691223C20.0097 0.691223 17.4044 3.24237 17.4044 6.38939C17.4044 9.53641 20.0097 12.0876 23.2235 12.0876Z" fill="url(#paint1_linear_21_5)"/>
</g>
<mask id="mask1_21_5" style="mask-type:alpha" maskUnits="userSpaceOnUse" x="51" y="0" width="12" height="13">
<path d="M56.9257 12.0876C60.1395 12.0876 62.7448 9.53641 62.7448 6.38939C62.7448 3.24237 60.1395 0.691223 56.9257 0.691223C53.7119 0.691223 51.1066 3.24237 51.1066 6.38939C51.1066 9.53641 53.7119 12.0876 56.9257 12.0876Z" fill="url(#paint2_linear_21_5)"/>
</mask>
<g mask="url(#mask1_21_5)">
<path d="M56.9257 12.0876C60.1395 12.0876 62.7448 9.53641 62.7448 6.38939C62.7448 3.24237 60.1395 0.691223 56.9257 0.691223C53.7119 0.691223 51.1066 3.24237 51.1066 6.38939C51.1066 9.53641 53.7119 12.0876 56.9257 12.0876Z" fill="url(#paint3_linear_21_5)"/>
</g>
<mask id="mask2_21_5" style="mask-type:alpha" maskUnits="userSpaceOnUse" x="84" y="0" width="13" height="13">
<path d="M90.6279 12.0876C93.8417 12.0876 96.447 9.53641 96.447 6.38939C96.447 3.24237 93.8417 0.691223 90.6279 0.691223C87.4141 0.691223 84.8088 3.24237 84.8088 6.38939C84.8088 9.53641 87.4141 12.0876 90.6279 12.0876Z" fill="url(#paint4_linear_21_5)"/>
</mask>
<g mask="url(#mask2_21_5)">
<path d="M90.6279 12.0876C93.8417 12.0876 96.447 9.53641 96.447 6.38939C96.447 3.24237 93.8417 0.691223 90.6279 0.691223C87.4141 0.691223 84.8088 3.24237 84.8088 6.38939C84.8088 9.53641 87.4141 12.0876 90.6279 12.0876Z" fill="url(#paint5_linear_21_5)"/>
</g>
<mask id="mask3_21_5" style="mask-type:alpha" maskUnits="userSpaceOnUse" x="17" y="29" width="13" height="12">
<path d="M23.2235 40.6972C26.4373 40.6972 29.0426 38.1461 29.0426 34.9991C29.0426 31.8521 26.4373 29.3009 23.2235 29.3009C20.0097 29.3009 17.4044 31.8521 17.4044 34.9991C17.4044 38.1461 20.0097 40.6972 23.2235 40.6972Z" fill="url(#paint6_linear_21_5)"/>
</mask>
<g mask="url(#mask3_21_5)">
<path d="M23.2235 40.6972C26.4373 40.6972 29.0426 38.1461 29.0426 34.9991C29.0426 31.8521 26.4373 29.3009 23.2235 29.3009C20.0097 29.3009 17.4044 31.8521 17.4044 34.9991C17.4044 38.1461 20.0097 40.6972 23.2235 40.6972Z" fill="url(#paint7_linear_21_5)"/>
</g>
<mask id="mask4_21_5" style="mask-type:alpha" maskUnits="userSpaceOnUse" x="51" y="29" width="12" height="12">
<path d="M56.9257 40.6972C60.1395 40.6972 62.7448 38.1461 62.7448 34.9991C62.7448 31.8521 60.1395 29.3009 56.9257 29.3009C53.7119 29.3009 51.1066 31.8521 51.1066 34.9991C51.1066 38.1461 53.7119 40.6972 56.9257 40.6972Z" fill="url(#paint8_linear_21_5)"/>
</mask>
<g mask="url(#mask4_21_5)">
<path d="M56.9257 40.6972C60.1395 40.6972 62.7448 38.1461 62.7448 34.9991C62.7448 31.8521 60.1395 29.3009 56.9257 29.3009C53.7119 29.3009 51.1066 31.8521 51.1066 34.9991C51.1066 38.1461 53.7119 40.6972 56.9257 40.6972Z" fill="url(#paint9_linear_21_5)"/>
</g>
<mask id="mask5_21_5" style="mask-type:alpha" maskUnits="userSpaceOnUse" x="84" y="29" width="13" height="12">
<path d="M90.6279 40.6972C93.8417 40.6972 96.447 38.1461 96.447 34.9991C96.447 31.8521 93.8417 29.3009 90.6279 29.3009C87.4141 29.3009 84.8088 31.8521 84.8088 34.9991C84.8088 38.1461 87.4141 40.6972 90.6279 40.6972Z" fill="url(#paint10_linear_21_5)"/>
</mask>
<g mask="url(#mask5_21_5)">
<path d="M90.6279 40.6972C93.8417 40.6972 96.447 38.1461 96.447 34.9991C96.447 31.8521 93.8417 29.3009 90.6279 29.3009C87.4141 29.3009 84.8088 31.8521 84.8088 34.9991C84.8088 38.1461 87.4141 40.6972 90.6279 40.6972Z" fill="url(#paint11_linear_21_5)"/>
</g>
<mask id="mask6_21_5" style="mask-type:alpha" maskUnits="userSpaceOnUse" x="17" y="57" width="13" height="13">
<path d="M23.2235 69.2476C26.4373 69.2476 29.0426 66.6964 29.0426 63.5494C29.0426 60.4023 26.4373 57.8512 23.2235 57.8512C20.0097 57.8512 17.4044 60.4023 17.4044 63.5494C17.4044 66.6964 20.0097 69.2476 23.2235 69.2476Z" fill="url(#paint12_linear_21_5)"/>
</mask>
<g mask="url(#mask6_21_5)">
<path d="M23.2235 69.2476C26.4373 69.2476 29.0426 66.6964 29.0426 63.5494C29.0426 60.4023 26.4373 57.8512 23.2235 57.8512C20.0097 57.8512 17.4044 60.4023 17.4044 63.5494C17.4044 66.6964 20.0097 69.2476 23.2235 69.2476Z" fill="url(#paint13_linear_21_5)"/>
</g>
<mask id="mask7_21_5" style="mask-type:alpha" maskUnits="userSpaceOnUse" x="51" y="57" width="12" height="13">
<path d="M56.9257 69.2476C60.1395 69.2476 62.7448 66.6964 62.7448 63.5494C62.7448 60.4023 60.1395 57.8512 56.9257 57.8512C53.7119 57.8512 51.1066 60.4023 51.1066 63.5494C51.1066 66.6964 53.7119 69.2476 56.9257 69.2476Z" fill="url(#paint14_linear_21_5)"/>
</mask>
<g mask="url(#mask7_21_5)">
<path d="M56.9257 69.2476C60.1395 69.2476 62.7448 66.6964 62.7448 63.5494C62.7448 60.4023 60.1395 57.8512 56.9257 57.8512C53.7119 57.8512 51.1066 60.4023 51.1066 63.5494C51.1066 66.6964 53.7119 69.2476 56.9257 69.2476Z" fill="url(#paint15_linear_21_5)"/>
</g>
<mask id="mask8_21_5" style="mask-type:alpha" maskUnits="userSpaceOnUse" x="84" y="57" width="13" height="13">
<path d="M90.6279 69.2476C93.8417 69.2476 96.447 66.6964 96.447 63.5494C96.447 60.4023 93.8417 57.8512 90.6279 57.8512C87.4141 57.8512 84.8088 60.4023 84.8088 63.5494C84.8088 66.6964 87.4141 69.2476 90.6279 69.2476Z" fill="url(#paint16_linear_21_5)"/>
</mask>
<g mask="url(#mask8_21_5)">
<path d="M90.6279 69.2476C93.8417 69.2476 96.447 66.6964 96.447 63.5494C96.447 60.4023 93.8417 57.8512 90.6279 57.8512C87.4141 57.8512 84.8088 60.4023 84.8088 63.5494C84.8088 66.6964 87.4141 69.2476 90.6279 69.2476Z" fill="url(#paint17_linear_21_5)"/>
</g>
<mask id="mask9_21_5" style="mask-type:alpha" maskUnits="userSpaceOnUse" x="17" y="86" width="13" height="12">
<path d="M23.2235 97.8572C26.4373 97.8572 29.0426 95.306 29.0426 92.159C29.0426 89.012 26.4373 86.4608 23.2235 86.4608C20.0097 86.4608 17.4044 89.012 17.4044 92.159C17.4044 95.306 20.0097 97.8572 23.2235 97.8572Z" fill="url(#paint18_linear_21_5)"/>
</mask>
<g mask="url(#mask9_21_5)">
<path d="M23.2235 97.8572C26.4373 97.8572 29.0426 95.306 29.0426 92.159C29.0426 89.012 26.4373 86.4608 23.2235 86.4608C20.0097 86.4608 17.4044 89.012 17.4044 92.159C17.4044 95.306 20.0097 97.8572 23.2235 97.8572Z" fill="url(#paint19_linear_21_5)"/>
</g>
<mask id="mask10_21_5" style="mask-type:alpha" maskUnits="userSpaceOnUse" x="51" y="86" width="12" height="12">
<path d="M56.9257 97.8572C60.1395 97.8572 62.7448 95.306 62.7448 92.159C62.7448 89.012 60.1395 86.4608 56.9257 86.4608C53.7119 86.4608 51.1066 89.012 51.1066 92.159C51.1066 95.306 53.7119 97.8572 56.9257 97.8572Z" fill="url(#paint20_linear_21_5)"/>
</mask>
<g mask="url(#mask10_21_5)">
<path d="M56.9257 97.8572C60.1395 97.8572 62.7448 95.306 62.7448 92.159C62.7448 89.012 60.1395 86.4608 56.9257 86.4608C53.7119 86.4608 51.1066 89.012 51.1066 92.159C51.1066 95.306 53.7119 97.8572 56.9257 97.8572Z" fill="url(#paint21_linear_21_5)"/>
</g>
<mask id="mask11_21_5" style="mask-type:alpha" maskUnits="userSpaceOnUse" x="84" y="86" width="13" height="12">
<path d="M90.6279 97.8572C93.8417 97.8572 96.447 95.306 96.447 92.159C96.447 89.012 93.8417 86.4608 90.6279 86.4608C87.4141 86.4608 84.8088 89.012 84.8088 92.159C84.8088 95.306 87.4141 97.8572 90.6279 97.8572Z" fill="url(#paint22_linear_21_5)"/>
</mask>
<g mask="url(#mask11_21_5)">
<path d="M90.6279 97.8572C93.8417 97.8572 96.447 95.306 96.447 92.159C96.447 89.012 93.8417 86.4608 90.6279 86.4608C87.4141 86.4608 84.8088 89.012 84.8088 92.159C84.8088 95.306 87.4141 97.8572 90.6279 97.8572Z" fill="url(#paint23_linear_21_5)"/>
</g>
<mask id="mask12_21_5" style="mask-type:alpha" maskUnits="userSpaceOnUse" x="17" y="115" width="13" height="12">
<path d="M23.2235 126.408C26.4373 126.408 29.0426 123.856 29.0426 120.709C29.0426 117.562 26.4373 115.011 23.2235 115.011C20.0097 115.011 17.4044 117.562 17.4044 120.709C17.4044 123.856 20.0097 126.408 23.2235 126.408Z" fill="url(#paint24_linear_21_5)"/>
</mask>
<g mask="url(#mask12_21_5)">
<path d="M23.2235 126.408C26.4373 126.408 29.0426 123.856 29.0426 120.709C29.0426 117.562 26.4373 115.011 23.2235 115.011C20.0097 115.011 17.4044 117.562 17.4044 120.709C17.4044 123.856 20.0097 126.408 23.2235 126.408Z" fill="url(#paint25_linear_21_5)"/>
</g>
<mask id="mask13_21_5" style="mask-type:alpha" maskUnits="userSpaceOnUse" x="51" y="115" width="12" height="12">
<path d="M56.9257 126.408C60.1395 126.408 62.7448 123.856 62.7448 120.709C62.7448 117.562 60.1395 115.011 56.9257 115.011C53.7119 115.011 51.1066 117.562 51.1066 120.709C51.1066 123.856 53.7119 126.408 56.9257 126.408Z" fill="url(#paint26_linear_21_5)"/>
</mask>
<g mask="url(#mask13_21_5)">
<path d="M56.9257 126.408C60.1395 126.408 62.7448 123.856 62.7448 120.709C62.7448 117.562 60.1395 115.011 56.9257 115.011C53.7119 115.011 51.1066 117.562 51.1066 120.709C51.1066 123.856 53.7119 126.408 56.9257 126.408Z" fill="url(#paint27_linear_21_5)"/>
</g>
<mask id="mask14_21_5" style="mask-type:alpha" maskUnits="userSpaceOnUse" x="84" y="115" width="13" height="12">
<path d="M90.6279 126.408C93.8417 126.408 96.447 123.856 96.447 120.709C96.447 117.562 93.8417 115.011 90.6279 115.011C87.4141 115.011 84.8088 117.562 84.8088 120.709C84.8088 123.856 87.4141 126.408 90.6279 126.408Z" fill="url(#paint28_linear_21_5)"/>
</mask>
<g mask="url(#mask14_21_5)">
<path d="M90.6279 126.408C93.8417 126.408 96.447 123.856 96.447 120.709C96.447 117.562 93.8417 115.011 90.6279 115.011C87.4141 115.011 84.8088 117.562 84.8088 120.709C84.8088 123.856 87.4141 126.408 90.6279 126.408Z" fill="url(#paint29_linear_21_5)"/>
</g>
</g>
<defs>
<filter id="filter0_d_21_5" x="-54" y="0.691223" width="154.447" height="133.716" filterUnits="userSpaceOnUse" color-interpolation-filters="sRGB">
<feFlood flood-opacity="0" result="BackgroundImageFix"/>
<feColorMatrix in="SourceAlpha" type="matrix" values="0 0 0 0 0 0 0 0 0 0 0 0 0 0 0 0 0 0 127 0" result="hardAlpha"/>
<feOffset dy="4"/>
<feGaussianBlur stdDeviation="2"/>
<feComposite in2="hardAlpha" operator="out"/>
<feColorMatrix type="matrix" values="0 0 0 0 0 0 0 0 0 0 0 0 0 0 0 0 0 0 0.25 0"/>
<feBlend mode="normal" in2="BackgroundImageFix" result="effect1_dropShadow_21_5"/>
<feBlend mode="normal" in="SourceGraphic" in2="effect1_dropShadow_21_5" result="shape"/>
</filter>
<linearGradient id="paint0_linear_21_5" x1="69.5395" y1="121.544" x2="-7.49036" y2="-78.1417" gradientUnits="userSpaceOnUse">
<stop/>
<stop offset="1" stop-color="white"/>
</linearGradient>
<linearGradient id="paint1_linear_21_5" x1="69.5395" y1="121.544" x2="-7.49036" y2="-78.1417" gradientUnits="userSpaceOnUse">
<stop stop-color="#97C3F9"/>
<stop offset="1" stop-color="#93C1F9"/>
</linearGradient>
<linearGradient id="paint2_linear_21_5" x1="98.7042" y1="110.293" x2="21.6744" y2="-89.3926" gradientUnits="userSpaceOnUse">
<stop/>
<stop offset="1" stop-color="white"/>
</linearGradient>
<linearGradient id="paint3_linear_21_5" x1="98.7042" y1="110.293" x2="21.6744" y2="-89.3926" gradientUnits="userSpaceOnUse">
<stop stop-color="#97C3F9"/>
<stop offset="1" stop-color="#93C1F9"/>
</linearGradient>
<linearGradient id="paint4_linear_21_5" x1="127.869" y1="99.0428" x2="50.8392" y2="-100.643" gradientUnits="userSpaceOnUse">
<stop/>
<stop offset="1" stop-color="white"/>
</linearGradient>
<linearGradient id="paint5_linear_21_5" x1="127.869" y1="99.0428" x2="50.8392" y2="-100.643" gradientUnits="userSpaceOnUse">
<stop stop-color="#97C3F9"/>
<stop offset="1" stop-color="#93C1F9"/>
</linearGradient>
<linearGradient id="paint6_linear_21_5" x1="59.5866" y1="125.382" x2="-17.4419" y2="-74.3022" gradientUnits="userSpaceOnUse">
<stop/>
<stop offset="1" stop-color="white"/>
</linearGradient>
<linearGradient id="paint7_linear_21_5" x1="59.5866" y1="125.382" x2="-17.4419" y2="-74.3022" gradientUnits="userSpaceOnUse">
<stop stop-color="#97C3F9"/>
<stop offset="1" stop-color="#93C1F9"/>
</linearGradient>
<linearGradient id="paint8_linear_21_5" x1="88.7515" y1="114.132" x2="11.723" y2="-85.5526" gradientUnits="userSpaceOnUse">
<stop/>
<stop offset="1" stop-color="white"/>
</linearGradient>
<linearGradient id="paint9_linear_21_5" x1="88.7515" y1="114.132" x2="11.723" y2="-85.5526" gradientUnits="userSpaceOnUse">
<stop stop-color="#97C3F9"/>
<stop offset="1" stop-color="#93C1F9"/>
</linearGradient>
<linearGradient id="paint10_linear_21_5" x1="117.916" y1="102.881" x2="40.8879" y2="-96.803" gradientUnits="userSpaceOnUse">
<stop/>
<stop offset="1" stop-color="white"/>
</linearGradient>
<linearGradient id="paint11_linear_21_5" x1="117.916" y1="102.881" x2="40.8879" y2="-96.803" gradientUnits="userSpaceOnUse">
<stop stop-color="#97C3F9"/>
<stop offset="1" stop-color="#93C1F9"/>
</linearGradient>
<linearGradient id="paint12_linear_21_5" x1="49.634" y1="129.222" x2="-27.3958" y2="-70.4634" gradientUnits="userSpaceOnUse">
<stop/>
<stop offset="1" stop-color="white"/>
</linearGradient>
<linearGradient id="paint13_linear_21_5" x1="49.634" y1="129.222" x2="-27.3958" y2="-70.4634" gradientUnits="userSpaceOnUse">
<stop stop-color="#97C3F9"/>
<stop offset="1" stop-color="#93C1F9"/>
</linearGradient>
<linearGradient id="paint14_linear_21_5" x1="78.7988" y1="117.972" x2="1.76895" y2="-81.7141" gradientUnits="userSpaceOnUse">
<stop/>
<stop offset="1" stop-color="white"/>
</linearGradient>
<linearGradient id="paint15_linear_21_5" x1="78.7988" y1="117.972" x2="1.76895" y2="-81.7141" gradientUnits="userSpaceOnUse">
<stop stop-color="#97C3F9"/>
<stop offset="1" stop-color="#93C1F9"/>
</linearGradient>
<linearGradient id="paint16_linear_21_5" x1="107.964" y1="106.721" x2="30.9338" y2="-92.9646" gradientUnits="userSpaceOnUse">
<stop/>
<stop offset="1" stop-color="white"/>
</linearGradient>
<linearGradient id="paint17_linear_21_5" x1="107.964" y1="106.721" x2="30.9338" y2="-92.9646" gradientUnits="userSpaceOnUse">
<stop stop-color="#97C3F9"/>
<stop offset="1" stop-color="#93C1F9"/>
</linearGradient>
<linearGradient id="paint18_linear_21_5" x1="39.6813" y1="133.062" x2="-37.3485" y2="-66.6242" gradientUnits="userSpaceOnUse">
<stop/>
<stop offset="1" stop-color="white"/>
</linearGradient>
<linearGradient id="paint19_linear_21_5" x1="39.6813" y1="133.062" x2="-37.3485" y2="-66.6242" gradientUnits="userSpaceOnUse">
<stop stop-color="#97C3F9"/>
<stop offset="1" stop-color="#93C1F9"/>
</linearGradient>
<linearGradient id="paint20_linear_21_5" x1="68.8462" y1="121.811" x2="-8.1837" y2="-77.8748" gradientUnits="userSpaceOnUse">
<stop/>
<stop offset="1" stop-color="white"/>
</linearGradient>
<linearGradient id="paint21_linear_21_5" x1="68.8462" y1="121.811" x2="-8.1837" y2="-77.8748" gradientUnits="userSpaceOnUse">
<stop stop-color="#97C3F9"/>
<stop offset="1" stop-color="#93C1F9"/>
</linearGradient>
<linearGradient id="paint22_linear_21_5" x1="98.011" y1="110.561" x2="20.9811" y2="-89.1254" gradientUnits="userSpaceOnUse">
<stop/>
<stop offset="1" stop-color="white"/>
</linearGradient>
<linearGradient id="paint23_linear_21_5" x1="98.011" y1="110.561" x2="20.9811" y2="-89.1254" gradientUnits="userSpaceOnUse">
<stop stop-color="#97C3F9"/>
<stop offset="1" stop-color="#93C1F9"/>
</linearGradient>
<linearGradient id="paint24_linear_21_5" x1="29.7286" y1="136.901" x2="-47.3012" y2="-62.7848" gradientUnits="userSpaceOnUse">
<stop/>
<stop offset="1" stop-color="white"/>
</linearGradient>
<linearGradient id="paint25_linear_21_5" x1="29.7286" y1="136.901" x2="-47.3012" y2="-62.7848" gradientUnits="userSpaceOnUse">
<stop stop-color="#97C3F9"/>
<stop offset="1" stop-color="#93C1F9"/>
</linearGradient>
<linearGradient id="paint26_linear_21_5" x1="58.8935" y1="125.65" x2="-18.1363" y2="-74.0355" gradientUnits="userSpaceOnUse">
<stop/>
<stop offset="1" stop-color="white"/>
</linearGradient>
<linearGradient id="paint27_linear_21_5" x1="58.8935" y1="125.65" x2="-18.1363" y2="-74.0355" gradientUnits="userSpaceOnUse">
<stop stop-color="#97C3F9"/>
<stop offset="1" stop-color="#93C1F9"/>
</linearGradient>
<linearGradient id="paint28_linear_21_5" x1="88.0584" y1="114.4" x2="11.0285" y2="-85.286" gradientUnits="userSpaceOnUse">
<stop/>
<stop offset="1" stop-color="white"/>
</linearGradient>
<linearGradient id="paint29_linear_21_5" x1="88.0584" y1="114.4" x2="11.0285" y2="-85.286" gradientUnits="userSpaceOnUse">
<stop stop-color="#97C3F9"/>
<stop offset="1" stop-color="#93C1F9"/>
</linearGradient>
</defs>
</svg>
