<svg width="179" height="45" viewBox="0 0 179 45" fill="none" xmlns="http://www.w3.org/2000/svg">
<path d="M65.0719 30.5591V16.1831H59.4799V13.6391H73.7599V16.1831H68.1679V30.5591H65.0719ZM73.8083 30.5591V21.5351C73.8083 21.0231 73.7923 20.5031 73.7603 19.9751C73.7443 19.4471 73.7043 18.9351 73.6403 18.4391H76.5443L76.8803 21.7511H76.4003C76.5603 20.9511 76.8243 20.2871 77.1923 19.7591C77.5763 19.2311 78.0403 18.8391 78.5843 18.5831C79.1283 18.3271 79.7203 18.1991 80.3603 18.1991C80.6483 18.1991 80.8803 18.2151 81.0563 18.2471C81.2323 18.2631 81.4083 18.3031 81.5843 18.3671L81.5603 21.0071C81.2563 20.8791 80.9923 20.7991 80.7683 20.7671C80.5603 20.7351 80.2963 20.7191 79.9763 20.7191C79.2883 20.7191 78.7043 20.8631 78.2243 21.1511C77.7603 21.4391 77.4083 21.8391 77.1683 22.3511C76.9443 22.8631 76.8323 23.4471 76.8323 24.1031V30.5591H73.8083ZM87.8169 30.7991C86.7609 30.7991 85.8329 30.5511 85.0329 30.0551C84.2329 29.5431 83.6089 28.8151 83.1609 27.8711C82.7129 26.9271 82.4889 25.7991 82.4889 24.4871C82.4889 23.1751 82.7129 22.0551 83.1609 21.1271C83.6089 20.1831 84.2329 19.4631 85.0329 18.9671C85.8329 18.4551 86.7609 18.1991 87.8169 18.1991C88.8409 18.1991 89.7369 18.4551 90.5049 18.9671C91.2889 19.4631 91.8089 20.1351 92.0649 20.9831H91.8009L92.0649 18.4391H94.9449C94.8969 18.9351 94.8489 19.4391 94.8009 19.9511C94.7689 20.4631 94.7529 20.9671 94.7529 21.4631V30.5591H91.7769L91.7529 28.0631H92.0409C91.7849 28.8951 91.2649 29.5591 90.4809 30.0551C89.6969 30.5511 88.8089 30.7991 87.8169 30.7991ZM88.6569 28.4951C89.6009 28.4951 90.3609 28.1671 90.9369 27.5111C91.5129 26.8391 91.8009 25.8311 91.8009 24.4871C91.8009 23.1431 91.5129 22.1431 90.9369 21.4871C90.3609 20.8311 89.6009 20.5031 88.6569 20.5031C87.7129 20.5031 86.9529 20.8311 86.3769 21.4871C85.8009 22.1431 85.5129 23.1431 85.5129 24.4871C85.5129 25.8311 85.7929 26.8391 86.3529 27.5111C86.9289 28.1671 87.6969 28.4951 88.6569 28.4951ZM98.8358 30.5591V20.6951H96.5078V18.4391H99.6758L98.8358 19.2071V17.3591C98.8358 15.8551 99.2198 14.7191 99.9878 13.9511C100.772 13.1831 101.916 12.7991 103.42 12.7991C103.772 12.7991 104.14 12.8231 104.524 12.8711C104.924 12.9191 105.268 13.0071 105.556 13.1351V15.4871C105.348 15.4071 105.1 15.3431 104.812 15.2951C104.524 15.2471 104.244 15.2231 103.972 15.2231C103.556 15.2231 103.18 15.3031 102.844 15.4631C102.524 15.6231 102.268 15.8711 102.076 16.2071C101.9 16.5271 101.812 16.9591 101.812 17.5031V18.9671L101.38 18.4391H105.004V20.6951H101.836V30.5591H98.8358ZM111.419 30.7991C110.363 30.7991 109.435 30.5511 108.635 30.0551C107.835 29.5431 107.211 28.8151 106.763 27.8711C106.315 26.9271 106.091 25.7991 106.091 24.4871C106.091 23.1751 106.315 22.0551 106.763 21.1271C107.211 20.1831 107.835 19.4631 108.635 18.9671C109.435 18.4551 110.363 18.1991 111.419 18.1991C112.443 18.1991 113.339 18.4551 114.107 18.9671C114.891 19.4631 115.411 20.1351 115.667 20.9831H115.403L115.667 18.4391H118.547C118.499 18.9351 118.451 19.4391 118.403 19.9511C118.371 20.4631 118.355 20.9671 118.355 21.4631V30.5591H115.379L115.355 28.0631H115.643C115.387 28.8951 114.867 29.5591 114.083 30.0551C113.299 30.5511 112.411 30.7991 111.419 30.7991ZM112.259 28.4951C113.203 28.4951 113.963 28.1671 114.539 27.5111C115.115 26.8391 115.403 25.8311 115.403 24.4871C115.403 23.1431 115.115 22.1431 114.539 21.4871C113.963 20.8311 113.203 20.5031 112.259 20.5031C111.315 20.5031 110.555 20.8311 109.979 21.4871C109.403 22.1431 109.115 23.1431 109.115 24.4871C109.115 25.8311 109.395 26.8391 109.955 27.5111C110.531 28.1671 111.299 28.4951 112.259 28.4951ZM121.621 30.5591V12.8951H124.621V30.5591H121.621ZM133.495 35.9351C132.375 35.9351 131.359 35.8151 130.447 35.5751C129.551 35.3351 128.751 34.9671 128.047 34.4711L128.695 32.3111C129.159 32.6151 129.639 32.8631 130.135 33.0551C130.631 33.2471 131.143 33.3911 131.671 33.4871C132.199 33.5831 132.735 33.6311 133.279 33.6311C134.399 33.6311 135.231 33.3511 135.775 32.7911C136.335 32.2471 136.615 31.4631 136.615 30.4391V27.5351H136.855C136.599 28.3671 136.079 29.0311 135.295 29.5271C134.527 30.0231 133.639 30.2711 132.631 30.2711C131.543 30.2711 130.591 30.0311 129.775 29.5511C128.975 29.0551 128.351 28.3511 127.903 27.4391C127.455 26.5271 127.231 25.4551 127.231 24.2231C127.231 22.9911 127.455 21.9271 127.903 21.0311C128.351 20.1191 128.975 19.4231 129.775 18.9431C130.591 18.4471 131.543 18.1991 132.631 18.1991C133.655 18.1991 134.543 18.4471 135.295 18.9431C136.063 19.4231 136.575 20.0791 136.831 20.9111L136.615 20.7671L136.855 18.4391H139.759C139.695 18.9351 139.647 19.4391 139.615 19.9511C139.583 20.4631 139.567 20.9671 139.567 21.4631V30.0791C139.567 31.9831 139.047 33.4311 138.007 34.4231C136.983 35.4311 135.479 35.9351 133.495 35.9351ZM133.447 27.9671C134.407 27.9671 135.167 27.6471 135.727 27.0071C136.303 26.3511 136.591 25.4231 136.591 24.2231C136.591 23.0231 136.303 22.1031 135.727 21.4631C135.167 20.8231 134.407 20.5031 133.447 20.5031C132.471 20.5031 131.695 20.8231 131.119 21.4631C130.543 22.1031 130.255 23.0231 130.255 24.2231C130.255 25.4231 130.543 26.3511 131.119 27.0071C131.695 27.6471 132.471 27.9671 133.447 27.9671ZM147.489 30.7991C146.433 30.7991 145.505 30.5511 144.705 30.0551C143.905 29.5431 143.281 28.8151 142.833 27.8711C142.385 26.9271 142.161 25.7991 142.161 24.4871C142.161 23.1751 142.385 22.0551 142.833 21.1271C143.281 20.1831 143.905 19.4631 144.705 18.9671C145.505 18.4551 146.433 18.1991 147.489 18.1991C148.513 18.1991 149.409 18.4551 150.177 18.9671C150.961 19.4631 151.481 20.1351 151.737 20.9831H151.473L151.737 18.4391H154.617C154.569 18.9351 154.521 19.4391 154.473 19.9511C154.441 20.4631 154.425 20.9671 154.425 21.4631V30.5591H151.449L151.425 28.0631H151.713C151.457 28.8951 150.937 29.5591 150.153 30.0551C149.369 30.5511 148.481 30.7991 147.489 30.7991ZM148.329 28.4951C149.273 28.4951 150.033 28.1671 150.609 27.5111C151.185 26.8391 151.473 25.8311 151.473 24.4871C151.473 23.1431 151.185 22.1431 150.609 21.4871C150.033 20.8311 149.273 20.5031 148.329 20.5031C147.385 20.5031 146.625 20.8311 146.049 21.4871C145.473 22.1431 145.185 23.1431 145.185 24.4871C145.185 25.8311 145.465 26.8391 146.025 27.5111C146.601 28.1671 147.369 28.4951 148.329 28.4951ZM157.668 30.5591V21.5351C157.668 21.0231 157.652 20.5031 157.62 19.9751C157.604 19.4471 157.564 18.9351 157.5 18.4391H160.404L160.74 21.7511H160.26C160.42 20.9511 160.684 20.2871 161.052 19.7591C161.436 19.2311 161.9 18.8391 162.444 18.5831C162.988 18.3271 163.58 18.1991 164.22 18.1991C164.508 18.1991 164.74 18.2151 164.916 18.2471C165.092 18.2631 165.268 18.3031 165.444 18.3671L165.42 21.0071C165.116 20.8791 164.852 20.7991 164.628 20.7671C164.42 20.7351 164.156 20.7191 163.836 20.7191C163.148 20.7191 162.564 20.8631 162.084 21.1511C161.62 21.4391 161.268 21.8391 161.028 22.3511C160.804 22.8631 160.692 23.4471 160.692 24.1031V30.5591H157.668Z" fill="#233348"/>
<ellipse cx="23.0441" cy="22.4103" rx="22.8161" ry="22.4103" fill="#458FF6"/>
<path d="M21.0407 31.4659V15.8919H14.9827V13.1359H30.4527V15.8919H24.3947V31.4659H21.0407Z" fill="white"/>
<path d="M21.0407 31.4659H20.0407V32.4659H21.0407V31.4659ZM21.0407 15.8919H22.0407V14.8919H21.0407V15.8919ZM14.9827 15.8919H13.9827V16.8919H14.9827V15.8919ZM14.9827 13.1359V12.1359H13.9827V13.1359H14.9827ZM30.4527 13.1359H31.4527V12.1359H30.4527V13.1359ZM30.4527 15.8919V16.8919H31.4527V15.8919H30.4527ZM24.3947 15.8919V14.8919H23.3947V15.8919H24.3947ZM24.3947 31.4659V32.4659H25.3947V31.4659H24.3947ZM22.0407 31.4659V15.8919H20.0407V31.4659H22.0407ZM21.0407 14.8919H14.9827V16.8919H21.0407V14.8919ZM15.9827 15.8919V13.1359H13.9827V15.8919H15.9827ZM14.9827 14.1359H30.4527V12.1359H14.9827V14.1359ZM29.4527 13.1359V15.8919H31.4527V13.1359H29.4527ZM30.4527 14.8919H24.3947V16.8919H30.4527V14.8919ZM23.3947 15.8919V31.4659H25.3947V15.8919H23.3947ZM24.3947 30.4659H21.0407V32.4659H24.3947V30.4659Z" fill="black"/>
</svg>
